HIERARCHY
ROOT SpineBase
{
  OFFSET 0.000000 0.000000 0.000000
  CHANNELS 6 Xposition Yposition Zposition Zrotation Xrotation Yrotation
  JOINT SpineMid
  {
    OFFSET -0.000000 31.816170 0.000000
    CHANNELS 3 Zrotation Xrotation Yrotation
    JOINT SpineShoulder
    {
      OFFSET -0.084717 23.506419 -0.762823
      CHANNELS 3 Zrotation Xrotation Yrotation
      JOINT Neck
      {
        OFFSET -0.031973 7.752151 -0.579438
        CHANNELS 3 Zrotation Xrotation Yrotation
        JOINT Head
        {
          OFFSET 4.442485 12.523255 1.600849
          CHANNELS 3 Zrotation Xrotation Yrotation
          End Site
          {
            OFFSET 0 0 0
          }
        }
      }
      JOINT ShoulderLeft
      {
        OFFSET -7.912996 -4.089477 -12.671928
        CHANNELS 3 Zrotation Xrotation Yrotation
        JOINT ElbowLeft
        {
          OFFSET -3.177081 -22.552070 -5.275224
          CHANNELS 3 Zrotation Xrotation Yrotation
          JOINT WristLeft
          {
            OFFSET 5.960918 -24.802257 -2.662746
            CHANNELS 3 Zrotation Xrotation Yrotation
            JOINT HandLeft
            {
              OFFSET 0.440462 -4.651350 1.367044
              CHANNELS 3 Zrotation Xrotation Yrotation
              JOINT HandTipLeft
              {
                OFFSET 1.066448 -6.207896 0.850764
                CHANNELS 3 Zrotation Xrotation Yrotation
                End Site
                {
                  OFFSET 0 0 0
                }
              }
              JOINT ThumbLeft
              {
                OFFSET -4.597944 -1.357127 -0.296706
                CHANNELS 3 Zrotation Xrotation Yrotation
                End Site
                {
                  OFFSET 0 0 0
                }
              }
            }
          }
        }
      }
      JOINT ShoulderRight
      {
        OFFSET 11.438521 -9.249251 5.423714
        CHANNELS 3 Zrotation Xrotation Yrotation
        JOINT ElbowRight
        {
          OFFSET 1.354986 -26.287865 10.979409
          CHANNELS 3 Zrotation Xrotation Yrotation
          JOINT WristRight
          {
            OFFSET 1.071000 -21.526224 -1.604073
            CHANNELS 3 Zrotation Xrotation Yrotation
            JOINT HandRight
            {
              OFFSET -1.214730 -3.193261 1.589337
              CHANNELS 3 Zrotation Xrotation Yrotation
              JOINT HandTipRight
              {
                OFFSET -0.246814 -2.845950 0.278393
                CHANNELS 3 Zrotation Xrotation Yrotation
                End Site
                {
                  OFFSET 0 0 0
                }
              }
              JOINT ThumbRight
              {
                OFFSET -2.247647 1.211042 -2.335253
                CHANNELS 3 Zrotation Xrotation Yrotation
                End Site
                {
                  OFFSET 0 0 0
                }
              }
            }
          }
        }
      }
    }
  }
  JOINT HipLeft
  {
    OFFSET -5.341253 1.913933 -7.916182
    CHANNELS 3 Zrotation Xrotation Yrotation
    JOINT KneeLeft
    {
      OFFSET -4.855976 -24.219077 -2.326392
      CHANNELS 3 Zrotation Xrotation Yrotation
      JOINT AnkleLeft
      {
        OFFSET -6.423963 -34.963320 4.806983
        CHANNELS 3 Zrotation Xrotation Yrotation
        JOINT FootLeft
        {
          OFFSET 1.859968 -7.875062 -6.751460
          CHANNELS 3 Zrotation Xrotation Yrotation
          End Site
          {
            OFFSET 0 0 0
          }
        }
      }
    }
  }
  JOINT HipRight
  {
    OFFSET 5.655530 -0.638736 0.775803
    CHANNELS 3 Zrotation Xrotation Yrotation
    JOINT KneeRight
    {
      OFFSET -4.208150 -25.843770 9.372457
      CHANNELS 3 Zrotation Xrotation Yrotation
      JOINT AnkleRight
      {
        OFFSET -8.378948 -32.061558 9.451801
        CHANNELS 3 Zrotation Xrotation Yrotation
        JOINT FootRight
        {
          OFFSET 4.490166 -7.659512 -2.011226
          CHANNELS 3 Zrotation Xrotation Yrotation
          End Site
          {
            OFFSET 0 0 0
          }
        }
      }
    }
  }
}
MOTION
Frames: 14
Frame Time: 0.033333
-19.668911 67.471634 337.281497 -1.363012 -1.466190 -38.612588 0.347618 -0.510172 38.536755 -0.229684 -0.460317 -0.082018 1.475906 1.586506 0.463017 0.000000 0.000000 0.000000 -1.244460 3.226519 0.813774 3.889066 -2.944335 -1.166446 -13.421719 14.354550 0.017348 19.794390 -16.445726 5.523758 0.000000 0.000000 0.000000 0.000000 0.000000 0.000000 0.926705 1.686656 -0.216689 -4.307283 -3.385688 0.389506 48.990655 32.407624 -5.309732 -37.428219 -32.461359 -14.177493 0.000000 0.000000 0.000000 0.000000 0.000000 0.000000 -0.939884 3.800465 38.202808 1.853592 -3.200573 1.034685 -1.177565 -0.123447 -1.582909 0.000000 0.000000 0.000000 -1.097768 3.866249 38.359684 1.701890 -3.237793 1.201193 2.864424 -1.270404 -3.306008 0.000000 0.000000 0.000000
-19.702166 67.510171 337.290789 -1.052583 -2.138165 -38.740926 0.578967 -0.540515 38.673736 -0.164096 -0.462855 -0.055509 1.378701 0.757570 0.954390 0.000000 0.000000 0.000000 -3.410318 4.274761 1.282890 4.902593 -2.654535 -1.316537 -6.111947 15.830704 1.079606 10.959222 -16.902783 2.595528 0.000000 0.000000 0.000000 0.000000 0.000000 0.000000 0.490985 2.656681 -0.194878 -1.605196 -2.721385 0.242912 41.298528 36.553875 -10.675396 -27.215294 -41.105181 -6.296701 0.000000 0.000000 0.000000 0.000000 0.000000 0.000000 -2.103794 4.232491 38.330664 2.541914 -3.756365 1.207569 -1.699610 0.276971 -1.465638 0.000000 0.000000 0.000000 -2.320733 4.717157 38.385185 2.096156 -4.494557 1.629287 3.012704 1.611555 -2.374167 0.000000 0.000000 0.000000
-19.792095 67.582450 337.144182 -0.608235 -2.875568 -38.364407 0.716412 -0.557602 38.316297 -0.103956 -0.443771 -0.026535 1.552879 -0.788458 1.655118 0.000000 0.000000 0.000000 -5.202987 4.933309 1.701373 5.012338 -1.557421 -1.281166 0.210868 18.166162 1.795433 2.218960 -16.285463 -0.452770 0.000000 0.000000 0.000000 0.000000 0.000000 0.000000 0.492715 4.201557 0.036190 0.821227 -2.880755 -0.184183 34.121082 41.122705 -16.094390 -16.477921 -48.133468 3.016486 0.000000 0.000000 0.000000 0.000000 0.000000 0.000000 -3.140997 4.563165 37.986537 3.056093 -4.006757 1.315513 -2.121589 0.495994 -1.397405 0.000000 0.000000 0.000000 -3.417628 5.432920 37.985191 2.381622 -5.492315 1.971041 2.427772 5.660266 -0.612102 0.000000 0.000000 0.000000
-20.041356 67.651102 337.053790 -0.237503 -3.684562 -37.367336 0.662306 -0.522301 37.337183 -0.073706 -0.379310 -0.007967 2.336505 -2.093676 2.191995 0.000000 0.000000 0.000000 -6.429523 4.783195 2.094338 4.750403 0.887400 -1.081693 2.999081 19.845367 1.818275 -1.776134 -14.885135 -1.719199 0.000000 0.000000 0.000000 0.000000 0.000000 0.000000 0.545317 5.691608 0.210258 2.770027 -2.464481 -0.461080 30.384068 40.802423 -15.802235 -14.576358 -48.502855 4.578732 0.000000 0.000000 0.000000 0.000000 0.000000 0.000000 -3.900886 5.325852 36.976765 3.336856 -4.233076 1.468098 -4.037489 -2.651313 -0.929841 0.000000 0.000000 0.000000 -4.087933 6.344097 37.089195 2.365049 -6.216011 2.137616 0.518561 10.708321 2.261920 0.000000 0.000000 0.000000
-20.416733 67.697717 336.990104 0.144373 -4.547089 -35.878053 0.593879 -0.450200 35.871170 -0.015287 -0.339530 0.011723 4.651006 -4.527617 3.007807 0.000000 0.000000 0.000000 -8.143122 4.398458 2.663853 4.455653 3.605858 -0.896320 5.866855 21.636813 1.782736 -3.801490 -13.729452 -2.288750 0.000000 0.000000 0.000000 0.000000 0.000000 0.000000 1.128853 8.055831 0.582493 3.832484 -2.381431 -0.941443 24.375685 35.677774 -11.091549 -12.027555 -40.020705 4.115974 0.000000 0.000000 0.000000 0.000000 0.000000 0.000000 -4.438754 6.361379 35.445658 3.377418 -4.460949 1.644134 -2.451812 0.507235 -1.901669 0.000000 0.000000 0.000000 -4.351249 7.256215 35.807648 2.054662 -6.526672 2.098794 0.897841 6.867062 -0.301754 0.000000 0.000000 0.000000
-20.887017 67.728061 336.911671 0.569792 -5.470141 -34.006462 0.576143 -0.384135 34.031187 0.025621 -0.283157 0.033343 7.431956 -6.561631 3.719423 0.000000 0.000000 0.000000 -9.598227 3.752160 3.180978 3.707480 6.707980 -0.555198 6.948299 21.131043 1.307483 -3.595880 -14.366890 -2.215548 0.000000 0.000000 0.000000 0.000000 0.000000 0.000000 1.947300 10.705537 0.988710 4.172100 -2.258078 -1.513938 19.655669 31.928518 -8.793815 -7.516513 -34.047569 5.622888 0.000000 0.000000 0.000000 0.000000 0.000000 0.000000 -4.662650 7.488612 33.521825 3.178369 -4.406044 1.768536 -1.101327 2.926171 -2.837554 0.000000 0.000000 0.000000 -4.272046 8.080115 34.224297 1.486097 -6.396155 1.862016 -0.660152 6.450257 -0.211929 0.000000 0.000000 0.000000
-21.436646 67.726690 336.888970 0.995677 -6.408649 -32.214617 0.469471 -0.299849 32.277642 -0.028363 -0.243671 0.049311 9.891314 -8.380015 4.477684 0.000000 0.000000 0.000000 -10.509925 3.247254 3.574176 2.527300 9.552367 -0.002546 6.228704 19.934737 0.450505 -1.090066 -13.698465 -0.769789 0.000000 0.000000 0.000000 0.000000 0.000000 0.000000 2.916570 13.374880 1.323374 3.947492 -2.600480 -2.058468 17.837671 31.472229 -9.193828 -7.365955 -35.003502 6.227689 0.000000 0.000000 0.000000 0.000000 0.000000 0.000000 -4.648902 8.707990 31.643167 2.807230 -4.256671 1.886815 -0.182306 4.553700 -3.602479 0.000000 0.000000 0.000000 -4.187809 8.968711 32.712283 0.992687 -6.290298 1.658657 -1.722400 6.676704 0.048481 0.000000 0.000000 0.000000
-22.001855 67.689408 336.906595 1.463843 -7.313146 -30.235679 0.506394 -0.218205 30.344847 -0.019026 -0.248968 0.073725 13.302188 -10.080928 5.160776 0.000000 0.000000 0.000000 -11.286930 2.221376 3.919074 0.867618 12.288066 0.517198 6.278109 22.537722 0.200186 0.965402 -16.448715 0.084810 0.000000 0.000000 0.000000 0.000000 0.000000 0.000000 4.324979 15.759972 1.707515 2.056437 -2.719719 -2.950048 16.939789 30.855495 -9.538103 -9.169980 -33.009487 4.852473 0.000000 0.000000 0.000000 0.000000 0.000000 0.000000 -4.352643 9.996530 29.516886 2.118676 -4.084021 1.990856 0.456822 5.608972 -4.153547 0.000000 0.000000 0.000000 -3.779016 9.681216 31.067131 0.122066 -5.795534 1.226925 -2.583230 6.757620 0.406337 0.000000 0.000000 0.000000
-22.445271 67.530477 336.973538 2.045844 -8.080993 -28.066108 0.609890 -0.224449 28.239060 -0.008662 -0.258757 0.103731 15.615136 -10.807398 5.467301 0.000000 0.000000 0.000000 -11.813106 1.397428 4.133287 -0.876708 14.766185 1.199120 4.700554 23.810936 -0.367547 4.823762 -18.967907 1.914387 0.000000 0.000000 0.000000 0.000000 0.000000 0.000000 5.668455 15.611944 2.037886 0.053917 0.613133 -3.972900 14.562436 28.122357 -9.124701 -8.187266 -30.351713 5.122451 0.000000 0.000000 0.000000 0.000000 0.000000 0.000000 -3.924029 11.139637 27.162355 1.236261 -3.963099 2.077741 0.796737 6.224080 -4.420034 0.000000 0.000000 0.000000 -3.309469 9.989453 29.224138 -0.914464 -4.855506 0.638236 -2.870204 6.124843 0.510130 0.000000 0.000000 0.000000
-22.679527 67.333314 337.068488 2.963065 -8.968782 -25.965599 1.005639 -0.374398 26.247707 0.085857 -0.338102 0.158405 18.857478 -10.885488 5.317393 0.000000 0.000000 0.000000 -12.999099 0.642835 4.495741 -2.835066 16.299759 1.609204 5.916646 25.158237 -0.290289 2.906525 -18.173887 1.094682 0.000000 0.000000 0.000000 0.000000 0.000000 0.000000 7.442779 17.762747 2.400883 -3.467955 1.282645 -5.406761 11.309290 24.876266 -8.763730 -3.756361 -26.960307 7.333338 0.000000 0.000000 0.000000 0.000000 0.000000 0.000000 -4.078031 12.174631 24.961351 0.452022 -4.023691 2.150806 0.611841 6.183181 -4.238540 0.000000 0.000000 0.000000 -3.349361 10.220576 27.462372 -1.950016 -3.759768 0.019249 -1.723403 4.826171 0.025057 0.000000 0.000000 0.000000
-22.653408 67.087573 337.099668 4.164762 -9.871679 -23.629621 1.278796 -0.453720 24.070042 0.113408 -0.333069 0.220792 22.166717 -10.947633 5.000228 0.000000 0.000000 0.000000 -14.062123 -0.453808 4.773920 -4.880692 17.191433 1.866475 7.937474 24.018335 -0.390351 0.994953 -18.628679 -0.315369 0.000000 0.000000 0.000000 0.000000 0.000000 0.000000 9.476532 18.179506 2.819033 -7.256076 4.790893 -6.980594 6.235390 21.064158 -9.991394 2.665103 -23.932154 11.267440 0.000000 0.000000 0.000000 0.000000 0.000000 0.000000 -4.776212 12.969479 22.675002 -0.068341 -4.073773 2.158314 0.365654 6.352515 -3.801524 0.000000 0.000000 0.000000 -4.011741 10.285523 25.422645 -2.590479 -2.979929 -0.357761 -1.005596 5.860533 0.850155 0.000000 0.000000 0.000000
-22.498879 66.833956 337.124539 5.504672 -10.741652 -21.556163 1.309325 -0.515528 22.197695 0.015802 -0.295965 0.280671 26.389952 -11.178269 4.571260 0.000000 0.000000 0.000000 -15.790691 -2.144104 5.356961 -5.852353 18.101094 1.739920 10.483828 23.288778 -0.350154 -0.510272 -17.954108 -1.165964 0.000000 0.000000 0.000000 0.000000 0.000000 0.000000 11.526829 18.027428 3.224301 -10.879148 8.000887 -8.320062 2.682518 23.098232 -14.467390 8.728498 -24.860010 17.251232 0.000000 0.000000 0.000000 0.000000 0.000000 0.000000 -5.731289 13.701377 20.725772 -0.624034 -4.230632 2.145322 -0.393433 4.880534 -3.150690 0.000000 0.000000 0.000000 -5.121260 10.406258 23.627529 -3.031179 -2.595599 -0.564123 0.135461 1.051240 -1.935380 0.000000 0.000000 0.000000
-22.441392 66.558946 336.890475 6.677929 -11.507019 -18.826378 1.439732 -0.522429 19.650698 -0.062920 -0.260404 0.339036 30.908413 -10.963847 3.600263 0.000000 0.000000 0.000000 -16.641882 -4.327978 5.691370 -7.410703 19.167522 1.808171 12.292351 22.223725 -0.448997 -1.337537 -16.500436 -1.477663 0.000000 0.000000 0.000000 0.000000 0.000000 0.000000 13.555523 19.491599 3.400540 -14.718257 8.731013 -9.698039 2.257898 24.276350 -16.418097 10.483542 -26.127589 19.498572 0.000000 0.000000 0.000000 0.000000 0.000000 0.000000 -5.665056 14.384706 17.990207 -1.757324 -4.103999 2.080906 -1.610303 2.109011 -2.374531 0.000000 0.000000 0.000000 -5.882786 10.321428 21.191387 -3.182602 -2.131668 -0.652411 0.764453 -1.766018 -3.734495 0.000000 0.000000 0.000000
-22.199458 66.218978 336.686179 8.046169 -12.188993 -16.012961 1.129880 -0.596570 17.084340 -0.025645 -0.280667 0.386155 35.512977 -10.156149 1.872193 0.000000 0.000000 0.000000 -17.172283 -6.921799 6.004982 -7.770828 20.222918 1.313225 11.170196 22.322102 -0.457613 -0.988902 -16.725412 -1.518998 0.000000 0.000000 0.000000 0.000000 0.000000 0.000000 15.375167 20.140249 3.569444 -17.981625 9.484633 -10.838480 0.350968 30.128698 -21.661999 16.662406 -26.147718 26.470780 0.000000 0.000000 0.000000 0.000000 0.000000 0.000000 -6.614984 15.021271 15.412927 -1.837610 -4.417330 2.110200 -3.577158 -2.337885 -1.677501 0.000000 0.000000 0.000000 -6.951271 10.024591 18.715352 -3.146644 -1.590933 -0.676910 0.679781 -3.003995 -4.495158 0.000000 0.000000 0.000000
